HIERARCHY
ROOT Hips
{
    OFFSET 0.000000 0.000000 0.000000
    CHANNELS 6 Xposition Yposition Zposition Zrotation Xrotation Yrotation
    JOINT Spine
    {
        OFFSET -0.000000 6.993131 0.000000
        CHANNELS 3 Zrotation Xrotation Yrotation
        JOINT Spine1
        {
            OFFSET -0.000000 20.649729 0.000000
            CHANNELS 3 Zrotation Xrotation Yrotation
            JOINT Neck
            {
                OFFSET -0.000000 20.564924 1.869539
                CHANNELS 3 Zrotation Xrotation Yrotation
                JOINT Head
                {
                    OFFSET -0.000000 11.939490 -1.705642
                    CHANNELS 3 Zrotation Xrotation Yrotation
                    End Site
                    {
                        OFFSET -0.000000 21.320518 0.000000
                    }
                }
            }
            JOINT LeftShoulder
            {
                OFFSET 3.446977 19.850397 -0.038759
                CHANNELS 3 Zrotation Xrotation Yrotation
                JOINT LeftArm
                {
                    OFFSET 7.083611 0.000000 0.000000
                    CHANNELS 3 Zrotation Xrotation Yrotation
                    JOINT LeftForeArm
                    {
                        OFFSET 32.044487 0.000000 0.000000
                        CHANNELS 3 Zrotation Xrotation Yrotation
                        JOINT LeftHand
                        {
                            OFFSET 22.068741 0.000000 0.000000
                            CHANNELS 3 Zrotation Xrotation Yrotation
                            End Site
                            {
                                OFFSET 12.792312 0.000000 0.000000
                            }
                        }
                    }
                }
            }
            JOINT RightShoulder
            {
                OFFSET -3.365844 19.850397 -0.038759
                CHANNELS 3 Zrotation Xrotation Yrotation
                JOINT RightArm
                {
                    OFFSET -7.083611 0.000000 0.000000
                    CHANNELS 3 Zrotation Xrotation Yrotation
                    JOINT RightForeArm
                    {
                        OFFSET -32.044487 0.000000 0.000000
                        CHANNELS 3 Zrotation Xrotation Yrotation
                        JOINT RightHand
                        {
                            OFFSET -22.068741 0.000000 0.000000
                            CHANNELS 3 Zrotation Xrotation Yrotation
                            End Site
                            {
                                OFFSET -12.792312 0.000000 0.000000
                            }
                        }
                    }
                }
            }
        }
    }
    JOINT LeftUpLeg
    {
        OFFSET 8.528208 0.000000 0.000000
        CHANNELS 3 Zrotation Xrotation Yrotation
        JOINT LeftLeg
        {
            OFFSET -0.000000 -31.874865 0.000000
            CHANNELS 3 Zrotation Xrotation Yrotation
            JOINT LeftFoot
            {
                OFFSET -0.000000 -38.221939 0.000000
                CHANNELS 3 Zrotation Xrotation Yrotation
                JOINT LeftToeBase
                {
                    OFFSET -0.000000 -5.543335 12.792312
                    CHANNELS 3 Zrotation Xrotation Yrotation
                    End Site
                    {
                        OFFSET -0.000000 0.000000 3.411283
                    }
                }
            }
        }
    }
    JOINT RightUpLeg
    {
        OFFSET -8.528208 0.000000 0.000000
        CHANNELS 3 Zrotation Xrotation Yrotation
        JOINT RightLeg
        {
            OFFSET -0.000000 -31.874865 0.000000
            CHANNELS 3 Zrotation Xrotation Yrotation
            JOINT RightFoot
            {
                OFFSET -0.000000 -38.221939 0.000000
                CHANNELS 3 Zrotation Xrotation Yrotation
                JOINT RightToeBase
                {
                    OFFSET -0.000000 -5.543335 12.792312
                    CHANNELS 3 Zrotation Xrotation Yrotation
                    End Site
                    {
                        OFFSET -0.000000 0.000000 3.411283
                    }
                }
            }
        }
    }
}
MOTION
Frames:    10
Frame Time:    0.008333
32.474789    75.491867    25.130287    -1.206367    0.726439    90.871780    -3.594291    -6.637800    3.607555    -0.577787    5.365988    3.843143    8.806790    16.731897    7.613863    -6.785982    -11.716701    6.323805    26.863455    -2.329607    -0.620020    -28.843134    -0.028408    -11.585304    11.933355    1.906394    -0.610102    -42.225857    15.900535    -35.272709    -9.588122    -2.850863    -8.592580    13.906516    2.604620    4.518073    -8.528488    5.155412    8.973798    2.134011    5.809815    -0.701820    -1.574549    2.153929    0.397703    2.001672    3.825243    2.244956    0.201761    -11.477148    1.732659    0.000000    0.000000    0.000000    -12.356516    5.526457    -1.683742    12.166445    -1.136193    -1.075873    -4.222639    -4.591020    -10.569332    0.000000    0.000000    0.000000    
32.476921    75.492546    25.133276    -1.208841    0.725313    90.882210    -3.595620    -6.633288    3.593501    -0.569306    5.351741    3.828562    8.896609    16.779081    7.701477    -6.990895    -11.730004    6.369233    26.815825    -2.320343    -0.621174    -28.752108    0.318613    -11.532139    -21.559528    -24.161736    -16.553638    77.723053    -29.383654    -3.321095    -9.570612    -2.698783    -8.388212    13.947939    2.512558    4.359401    -8.468187    5.134628    9.048038    1.866686    5.789647    -0.812827    -1.569684    2.155015    0.403921    1.998925    3.820442    2.232743    0.181119    -11.482257    1.722210    0.000000    0.000000    0.000000    -12.350290    5.527592    -1.720141    12.160699    -1.132133    -1.019832    -4.249715    -4.583278    -10.589520    0.000000    0.000000    0.000000    
32.479130    75.493500    25.134457    -1.212448    0.722917    90.890182    -3.606308    -6.632238    3.590747    -0.535571    5.340453    3.824760    8.908261    16.633080    7.624464    -7.007508    -11.477013    6.287633    26.761467    -2.327062    -0.677490    -28.733929    0.335257    -11.503835    -21.577015    -24.173151    -16.552687    77.767403    -29.394165    -3.314886    -9.564816    -2.683784    -8.378734    13.957381    2.519405    4.370882    -8.471673    5.200274    9.064533    2.004589    5.859490    -0.598355    -1.568428    2.152597    0.408498    2.007848    3.819875    2.216890    0.170156    -11.473578    1.724682    0.000000    0.000000    0.000000    -12.344880    5.525451    -1.693477    12.159445    -1.132323    -1.033983    -4.214130    -4.593578    -10.620601    0.000000    0.000000    0.000000    
32.478668    75.493576    25.136398    -1.224583    0.720878    90.907211    -3.616795    -6.643605    3.584159    -0.509572    5.339666    3.817919    8.857435    16.629791    7.599009    -6.947967    -11.482083    6.274613    26.722277    -2.322021    -0.690561    -28.713554    0.370883    -11.536586    -21.618896    -24.208504    -16.516031    77.820740    -29.437267    -3.326045    -9.557363    -2.688695    -8.353840    13.977235    2.616983    4.374568    -8.438696    5.169864    9.013683    1.905075    5.825466    -0.464761    -1.563273    2.137193    0.404533    2.004695    3.820491    2.191540    0.075850    -11.433664    1.734560    0.000000    0.000000    0.000000    -12.330044    5.507542    -1.775021    12.142295    -1.098914    -0.981944    -4.192835    -4.602855    -10.610458    0.000000    0.000000    0.000000    
32.480927    75.492500    25.136148    -1.229267    0.724828    90.922935    -3.606891    -6.643667    3.569158    -0.520282    5.332997    3.802801    8.840532    16.621006    7.601067    -6.953482    -11.465095    6.275641    26.708755    -2.324544    -0.751861    -28.777622    0.010843    -11.547551    -21.628437    -24.140493    -16.191992    77.699417    -29.527643    -3.630960    -9.545137    -2.680333    -8.321793    13.997708    2.620311    4.395409    -8.450098    5.145172    9.001253    2.071029    5.800873    -0.422685    -1.570995    2.132057    0.412416    2.009463    3.824684    2.216352    0.187490    -11.480264    1.699106    0.000000    0.000000    0.000000    -12.341931    5.515971    -1.732499    12.154450    -1.119379    -1.027827    -4.220693    -4.605544    -10.611737    0.000000    0.000000    0.000000    
32.481445    75.492882    25.136200    -1.233539    0.725334    90.932121    -3.616021    -6.618556    3.565930    -0.494218    5.280116    3.797879    8.820575    16.631441    7.579659    -6.954100    -11.450299    6.254865    26.651358    -2.305824    -0.789621    -28.737278    0.030553    -11.550107    -21.686558    -24.166500    -16.160204    77.749229    -29.572306    -3.653082    -9.531411    -2.651186    -8.312424    13.999782    2.597995    4.418831    -8.472525    5.120794    8.985272    2.410875    5.776810    -0.376719    -1.570482    2.132208    0.397363    2.008078    3.812552    2.199380    0.197623    -11.467600    1.726677    0.000000    0.000000    0.000000    -12.348252    5.550147    -1.761791    12.169432    -1.176073    -0.967238    -4.218266    -4.570871    -10.640219    0.000000    0.000000    0.000000    
32.483208    75.492905    25.136608    -1.243098    0.726377    90.954895    -3.630489    -6.630313    3.561235    -0.461612    5.284464    3.792901    8.821560    16.611515    7.562373    -6.993183    -11.424549    6.227345    26.614206    -2.310210    -0.823232    -28.712538    0.009659    -11.580695    -21.756250    -24.201523    -16.055933    77.776245    -29.648779    -3.725264    -9.526695    -2.785551    -8.466310    13.969701    2.724359    4.585864    -8.409129    5.068917    8.968663    2.045570    5.717254    -0.530355    -1.569086    2.118327    0.421480    2.006645    3.818355    2.161642    0.212706    -11.473037    1.710969    0.000000    0.000000    0.000000    -12.348196    5.551485    -1.766377    12.173347    -1.187967    -1.000969    -4.234645    -4.565246    -10.632400    0.000000    0.000000    0.000000    
32.487904    75.492737    25.137693    -1.235561    0.725548    90.973900    -3.639296    -6.610948    3.551402    -0.436061    5.265856    3.781734    8.789072    16.598808    7.552716    -6.980714    -11.411125    6.219888    26.572668    -2.309456    -0.848391    -28.681362    0.021862    -11.573933    -21.799932    -24.220177    -16.029715    77.805161    -29.682154    -3.744055    -9.527752    -2.778503    -8.457918    13.970436    2.713331    4.601678    -8.371358    5.043761    8.953469    1.547056    5.689343    -0.605832    -1.567794    2.130357    0.415424    2.010426    3.813919    2.122760    0.204766    -11.469819    1.742283    0.000000    0.000000    0.000000    -12.342351    5.568342    -1.777461    12.165394    -1.188096    -1.001171    -4.236115    -4.566087    -10.629102    0.000000    0.000000    0.000000    
32.485832    75.491379    25.136433    -1.244344    0.725614    90.989594    -3.643572    -6.602041    3.547354    -0.425276    5.244099    3.777063    8.877770    16.707500    7.596017    -7.175495    -11.572176    6.218163    26.577547    -2.301566    -0.856989    -28.688034    0.015996    -11.606214    -21.799988    -24.250166    -15.960148    77.788429    -29.720749    -3.776313    -9.516691    -2.769010    -8.441563    13.960969    2.717423    4.594496    -8.424479    5.066305    8.968296    1.762947    5.717241    -0.525051    -1.562070    2.114279    0.448143    2.002296    3.819285    2.103773    0.178727    -11.488683    1.706926    0.000000    0.000000    0.000000    -12.341027    5.556905    -1.804981    12.164096    -1.174162    -0.986159    -4.223489    -4.580380    -10.636090    0.000000    0.000000    0.000000    
32.489670    75.490517    25.136292    -1.239316    0.727941    91.008682    -3.655271    -6.587474    3.537810    -0.400606    5.229764    3.766539    8.853199    16.769152    7.563471    -7.168086    -11.695474    6.183634    26.553862    -2.320289    -0.881095    -28.674124    0.011707    -11.599343    -21.801796    -24.276148    -15.882197    77.759163    -29.764044    -3.823362    -9.529976    -2.791547    -8.419202    13.963220    2.728737    4.577513    -8.466559    5.065061    9.008433    1.832168    5.720941    -0.588388    -1.568201    2.125690    0.449640    2.012360    3.810801    2.081025    0.181291    -11.484461    1.719892    0.000000    0.000000    0.000000    -12.345717    5.576734    -1.791540    12.173435    -1.179968    -0.961190    -4.257071    -4.589739    -10.693868    0.000000    0.000000    0.000000    
